<svg width="97" height="30" viewBox="0 0 97 30" fill="none" xmlns="http://www.w3.org/2000/svg">
<g id="Group">
<g id="Group_2">
<path id="Vector" d="M6.00423 15.4603C6.00423 15.4434 6.00423 15.4265 6.00423 15.4095C6.00423 15.1894 5.82646 15.0116 5.60635 15.0116C5.58942 15.0116 5.5746 15.0116 5.55767 15.0138H1.90053C0.850794 15.0116 0 14.1608 0 13.1111V7.90476C0 6.85503 0.850794 6.00423 1.90053 6.00423H5.60635C5.82646 6.00423 6.00423 5.82646 6.00423 5.60635V0.397884C6.00423 0.177778 6.18201 0 6.40212 0H8.60952C8.82963 0 9.00741 0.177778 9.00741 0.397884V7.10688C9.00741 8.15661 8.15661 9.00741 7.10688 9.00741H3.44974H3.39894C3.17884 9.00741 3.00106 9.18518 3.00106 9.40529V11.564C3.00106 11.581 3.00106 11.5979 3.00106 11.6148C3.00106 11.8349 3.17884 12.0127 3.39894 12.0127C3.41587 12.0127 3.43069 12.0127 3.44762 12.0106H7.10688C8.15661 12.0106 9.00741 12.8635 9.00741 13.9132V23.5746C9.00741 23.5915 9.00741 23.6085 9.00741 23.6254C9.00741 23.8455 9.18518 24.0233 9.40529 24.0233C9.42222 24.0233 9.43704 24.0233 9.45397 24.0212H17.5683C17.5852 24.0212 17.6021 24.0233 17.619 24.0233C17.8392 24.0233 18.0169 23.8455 18.0169 23.6254C18.0169 23.6085 18.0169 23.5937 18.0148 23.5767V18.4148C18.0169 18.1947 18.1947 18.0169 18.4148 18.0169H20.6222C20.8423 18.0169 21.0201 18.1947 21.0201 18.4148V25.1238C21.0201 26.1735 20.1693 27.0243 19.1196 27.0243H7.90899C6.85926 27.0243 6.00847 26.1735 6.00847 25.1238V15.4624L6.00423 15.4603ZM24.019 15.4603C24.019 15.4434 24.019 15.4265 24.019 15.4095C24.019 15.1894 23.8413 15.0116 23.6212 15.0116C23.6042 15.0116 23.5894 15.0116 23.5725 15.0138H19.9132C18.8635 15.0116 18.0127 14.1608 18.0127 13.1111V3.44974C18.0127 3.4328 18.0127 3.41587 18.0127 3.39894C18.0127 3.17884 17.8349 3.00106 17.6148 3.00106C17.5979 3.00106 17.5831 3.00106 17.5661 3.00317H15.4561C15.4392 3.00317 15.4222 3.00106 15.4053 3.00106C15.1852 3.00106 15.0074 3.17884 15.0074 3.39894C15.0074 3.41587 15.0074 3.43069 15.0095 3.44762V20.618C15.0074 20.8402 14.8296 21.018 14.6095 21.018H12.4021C12.182 21.018 12.0042 20.8402 12.0042 20.6201V1.90053C12.0042 0.850794 12.855 0 13.9048 0H19.1111C20.1608 0 21.0116 0.850794 21.0116 1.90053V11.5619C21.0116 11.5788 21.0116 11.5958 21.0116 11.6127C21.0116 11.8328 21.1894 12.0106 21.4095 12.0106C21.4265 12.0106 21.4413 12.0106 21.4582 12.0085H25.1175C26.1672 12.0106 27.018 12.8614 27.018 13.9111V26.6243C27.018 26.8444 26.8402 27.0222 26.6201 27.0222H24.4127C24.1926 27.0222 24.0148 26.8444 24.0148 26.6243V15.4582L24.019 15.4603Z" fill="#43B02A"/>
<path id="Vector_2" d="M57.3143 2.89735H56.0698C53.5598 2.89735 52.1101 4.48889 52.1101 6.24339V11.1005C52.1101 12.836 53.5598 14.4275 56.0698 14.4275H57.3143C59.7228 14.4275 61.09 12.836 61.09 11.1005V6.24339C61.09 4.48889 59.7228 2.89735 57.3143 2.89735ZM58.1714 10.6116C58.1714 11.4476 57.6212 11.837 56.946 11.837H56.2519C55.5788 11.837 55.0265 11.4497 55.0265 10.6116V6.69418C55.0265 5.87725 55.5767 5.46878 56.2519 5.46878H56.946C57.6191 5.46878 58.1714 5.87725 58.1714 6.69418V10.6116ZM47.8053 2.89735H47.0307C46.2349 2.89735 45.4794 3.14286 44.8064 3.55132V0H41.8878V14.3048H44.8064V6.10159C45.1937 5.71429 45.7249 5.46878 46.2963 5.46878H46.7238C47.3566 5.46878 47.8667 5.83704 47.8667 6.67302V14.3048H50.7852V6.22434C50.7852 4.46984 49.7439 2.89735 47.8053 2.89735ZM39.4794 0H37.4794L36.6011 3.02011H35.3164V5.59153H36.5609V14.3048H39.4794V5.59153H41.0138V3.02011H39.4794V0ZM91.5005 6.28571V6.04021C91.5005 5.65291 91.909 5.46878 92.3175 5.46878H92.9291C93.418 5.46878 93.8667 5.77566 93.8667 6.3873V6.57143H96.5799V6.26455C96.5799 4.48889 95.3355 2.89735 93.1111 2.89735H91.9683C89.7439 2.89735 88.4995 4.30476 88.4995 5.83704V6.42963C88.4995 9.73545 94.091 9.81799 94.091 10.9185V11.164C94.091 11.6127 93.6021 11.837 93.0095 11.837H92.2942C91.6402 11.837 91.1111 11.5302 91.1111 10.9185V10.6942H88.2138V11.1429C88.2138 12.836 89.5407 14.4275 91.9471 14.4275H93.1915C95.4984 14.4275 96.9058 12.9376 96.9058 11.3672V10.8571C96.9058 7.30582 91.4984 7.44974 91.4984 6.28571H91.5005ZM83.5788 2.89735H82.5989C80.1905 2.89735 78.8042 4.57143 78.8042 6.42751V6.71323H81.7228V6.56931C81.7228 5.83492 82.2116 5.46667 82.764 5.46667H83.3355C83.928 5.46667 84.4381 5.87513 84.4381 6.69206V7.36508L82.2349 7.61058C80.2963 7.83492 78.3788 8.7746 78.3788 10.6709V11.5492C78.3788 13.0392 79.5005 14.4254 81.5429 14.4254H82.4825C83.3609 14.4254 84.2773 14.0381 85.054 13.3651L85.3608 14.3026H87.3397V6.49101C87.3397 4.59259 85.9725 2.89947 83.5852 2.89947L83.5788 2.89735ZM84.436 11.2042C83.9873 11.6127 83.2931 11.837 82.6201 11.837H82.0889C81.6804 11.837 81.272 11.5915 81.272 11.1026V10.7556C81.272 10.2243 81.9048 9.83704 82.6392 9.73545L84.436 9.48995V11.2042ZM74.3111 2.89735H73.5365C72.4762 2.89735 71.4751 3.32487 70.6392 4.04021C70.1503 3.34603 69.3736 2.89735 68.3323 2.89735H67.5577C66.5164 2.89735 65.5577 3.30582 64.7217 4L64.4148 3.02011H62.4148V14.3048H65.3333V6.10159C65.7206 5.71429 66.2519 5.46878 66.8233 5.46878H67.2508C67.8836 5.46878 68.3937 5.83704 68.3937 6.67302V14.3048H71.3122V6.08254C71.6804 5.7164 72.2307 5.4709 72.8021 5.4709H73.2296C73.8413 5.4709 74.3725 5.83915 74.3725 6.67513V14.3069H77.291V6.22434C77.291 4.46984 76.2497 2.89735 74.3111 2.89735Z" fill="#53565A"/>
</g>
<g id="Group_3">
<path id="Vector_3" d="M39.5979 18.9926C40.4021 18.9926 41.0434 19.2402 41.5238 19.7333C42.0021 20.2264 42.2412 20.8232 42.2412 21.5217V27.0243H40.8465L40.6307 26.364C40.055 26.8613 39.4518 27.1111 38.8211 27.1111H38.1608C37.4709 27.1111 36.927 26.9121 36.5291 26.5142C36.1312 26.1164 35.9323 25.6402 35.9323 25.0857V24.4677C35.9323 23.8455 36.1926 23.3523 36.7153 22.9883C37.2381 22.6243 37.8815 22.4 38.6476 22.3132L40.1989 22.1396V21.6656C40.1989 21.3883 40.1248 21.1746 39.9767 21.0264C39.8285 20.8783 39.6444 20.8042 39.4243 20.8042H39.0222C38.8106 20.8042 38.637 20.8719 38.4973 21.0053C38.3576 21.1386 38.2899 21.3312 38.2899 21.5809V21.6825H36.2349V21.4814C36.2349 20.7915 36.4762 20.2053 36.9608 19.7206C37.4434 19.2381 38.0931 18.9947 38.9079 18.9947H39.5979V18.9926ZM38.9227 25.2846C39.4497 25.2846 39.8751 25.1365 40.201 24.8402V23.6338L38.9375 23.8074C38.6688 23.8455 38.4423 23.9301 38.2539 24.0592C38.0677 24.1883 37.9746 24.3449 37.9746 24.5269V24.7703C37.9746 24.9333 38.0317 25.0603 38.146 25.1513C38.2603 25.2423 38.3957 25.2867 38.5481 25.2867H38.9227V25.2846Z" fill="#53565A"/>
<path id="Vector_4" d="M43.2297 19.0772H44.6371L44.8381 19.71C45.4138 19.2317 46.0064 18.9926 46.6202 18.9926H47.3969C48.0678 18.9926 48.5948 19.2275 48.9778 19.6973C49.3609 20.1672 49.5535 20.7322 49.5535 21.3926V24.6984C49.5535 25.3587 49.3588 25.9259 48.9715 26.4C48.5842 26.874 48.0593 27.1111 47.399 27.1111H46.6667C46.1778 27.1111 45.7186 26.9777 45.2868 26.709V30H43.2318V19.0793L43.2297 19.0772ZM46.2752 20.8021C45.8921 20.8021 45.562 20.9418 45.2847 21.219V24.8677C45.5429 25.1449 45.8688 25.2846 46.2625 25.2846H46.6794C46.9186 25.2846 47.1154 25.2105 47.2678 25.0624C47.4202 24.9142 47.4985 24.7005 47.4985 24.4232V21.6783C47.4985 21.401 47.4223 21.1851 47.2678 21.0307C47.1154 20.8783 46.9228 20.8 46.6921 20.8H46.2752V20.8021Z" fill="#53565A"/>
<path id="Vector_5" d="M50.4255 19.0772H51.8329L52.0339 19.71C52.6096 19.2317 53.2022 18.9926 53.816 18.9926H54.5927C55.2636 18.9926 55.7906 19.2275 56.1736 19.6973C56.5567 20.1672 56.7493 20.7322 56.7493 21.3926V24.6984C56.7493 25.3587 56.5546 25.9259 56.1673 26.4C55.78 26.874 55.2551 27.1111 54.5948 27.1111H53.8625C53.3736 27.1111 52.9144 26.9777 52.4826 26.709V30H50.4276V19.0793L50.4255 19.0772ZM53.4731 20.8021C53.09 20.8021 52.7599 20.9418 52.4826 21.219V24.8677C52.7408 25.1449 53.0667 25.2846 53.4604 25.2846H53.8773C54.1165 25.2846 54.3133 25.2105 54.4657 25.0624C54.6181 24.9142 54.6964 24.7005 54.6964 24.4232V21.6783C54.6964 21.401 54.6202 21.1851 54.4657 21.0307C54.3133 20.8783 54.1207 20.8 53.89 20.8H53.4731V20.8021Z" fill="#53565A"/>
</g>
</g>
</svg>
