<svg width="147" height="50" viewBox="0 0 147 50" fill="none" xmlns="http://www.w3.org/2000/svg">
<path d="M16.6391 27.0941C16.6391 27.0631 16.6391 27.0631 16.6391 27.0321C16.6391 26.7839 16.4529 26.5977 16.2048 26.5977C16.1737 26.5977 16.1737 26.5977 16.1427 26.5977H12.1096C10.9617 26.5977 10 25.667 10 24.4881V18.7487C10 17.6008 10.9307 16.6391 12.1096 16.6391H16.1427H16.2048C16.4529 16.6391 16.6391 16.4529 16.6391 16.2048V16.1427V10.4343C16.6391 10.1861 16.8252 10 17.0734 10H19.5243C19.7725 10 19.9586 10.1861 19.9586 10.4343V17.849C19.9586 18.9969 19.0279 19.9586 17.849 19.9586H13.8159H13.7539C13.5057 19.9586 13.3195 20.1448 13.3195 20.393V20.455V22.7818C13.3195 22.8128 13.3195 22.8128 13.3195 22.8438C13.3195 23.092 13.5057 23.2782 13.7539 23.2782C13.7849 23.2782 13.7849 23.2782 13.8159 23.2782H17.88C19.0279 23.2782 19.9897 24.2089 19.9897 25.3878V36.091C19.9897 36.122 19.9897 36.122 19.9897 36.1531C19.9897 36.4012 20.1758 36.5874 20.424 36.5874C20.455 36.5874 20.455 36.5874 20.486 36.5874H29.4519C29.4829 36.5874 29.4829 36.5874 29.514 36.5874C29.7622 36.5874 29.9483 36.4012 29.9483 36.1531C29.9483 36.122 29.9483 36.122 29.9483 36.091V30.3826C29.9483 30.1344 30.1344 29.9483 30.3826 29.9483H32.8335C33.0817 29.9483 33.2678 30.1344 33.2678 30.3826V37.7973C33.2678 38.9452 32.3371 39.9069 31.1582 39.9069H18.7487C17.6008 39.9069 16.6391 38.9762 16.6391 37.7973V27.0941ZM36.5874 27.0941C36.5874 27.0631 36.5874 27.0631 36.5874 27.0321C36.5874 26.7839 36.4012 26.5977 36.1531 26.5977C36.122 26.5977 36.122 26.5977 36.091 26.5977H32.0579C30.91 26.5977 29.9483 25.667 29.9483 24.4881V13.8159C29.9483 13.7849 29.9483 13.7849 29.9483 13.7539C29.9483 13.5057 29.7622 13.3195 29.514 13.3195C29.4829 13.3195 29.4829 13.3195 29.4519 13.3195H27.1251C27.0941 13.3195 27.0941 13.3195 27.0631 13.3195C26.8149 13.3195 26.6287 13.5057 26.6287 13.7539C26.6287 13.7849 26.6287 13.7849 26.6287 13.8159V32.8025C26.6287 33.0507 26.4426 33.2368 26.1944 33.2368H23.7435C23.4953 33.2368 23.3092 33.0507 23.3092 32.8025V12.1096C23.3092 10.9617 24.2399 10 25.4188 10H31.1892C32.3061 10 33.2678 10.9307 33.2678 12.1096V22.8128C33.2678 22.8438 33.2678 22.8438 33.2678 22.8749C33.2678 23.1231 33.454 23.3092 33.7022 23.3092C33.7332 23.3092 33.7332 23.3092 33.7642 23.3092H37.7973C38.9452 23.3092 39.9069 24.2399 39.9069 25.4188V39.4726C39.9069 39.7208 39.7208 39.9069 39.4726 39.9069H37.0217C36.7735 39.9069 36.5874 39.7208 36.5874 39.4726V27.0941Z" fill="#43B02A"/>
<path d="M73.4126 13.1955H72.0476C69.2554 13.1955 67.6732 14.9638 67.6732 16.8873V22.2544C67.6732 24.1779 69.2865 25.9462 72.0476 25.9462H73.4126C76.0807 25.9462 77.6008 24.1779 77.6008 22.2544V16.9183C77.6008 14.9638 76.0807 13.1955 73.4126 13.1955ZM74.3744 21.727C74.3744 22.6577 73.7539 23.092 73.0093 23.092H72.2337C71.4891 23.092 70.8687 22.6577 70.8687 21.727V17.3837C70.8687 16.484 71.4891 16.0186 72.2337 16.0186H73.0093C73.7539 16.0186 74.3744 16.484 74.3744 17.3837V21.727ZM62.8956 13.1955H62.0269C61.1582 13.1955 60.3206 13.4747 59.576 13.909V10H56.3495V25.8221H59.576V16.7632C60.0103 16.3289 60.5998 16.0496 61.2203 16.0496H61.6856C62.3992 16.0496 62.9576 16.4529 62.9576 17.3837V25.8221H66.1841V16.8873C66.1841 14.9328 65.0362 13.1955 62.8956 13.1955ZM53.6815 10H51.4788L50.5171 13.3506H49.09V16.2048H50.455V25.8221H53.6815V16.1737H55.3878V13.3195H53.6815V10ZM111.262 16.9493V16.6701C111.262 16.2358 111.727 16.0496 112.161 16.0496H112.844C113.371 16.0496 113.868 16.3909 113.868 17.0734V17.2906H116.877V16.9493C116.877 14.9948 115.512 13.2265 113.03 13.2265H111.758C109.307 13.2265 107.911 14.7777 107.911 16.484V17.1355C107.911 20.7963 114.085 20.8893 114.085 22.0993V22.3785C114.085 22.8749 113.557 23.1231 112.875 23.1231H112.099C111.386 23.1231 110.796 22.7818 110.796 22.0993V21.8511H107.601V22.3475C107.601 24.2089 109.059 25.9772 111.727 25.9772H113.092C115.636 25.9772 117.187 24.333 117.187 22.5957V22.0372C117.218 18.0972 111.262 18.2523 111.262 16.9493ZM102.482 13.1955H101.396C98.728 13.1955 97.2079 15.0569 97.2079 17.1044V17.4147H100.434V17.2596C100.434 16.4529 100.962 16.0496 101.582 16.0496H102.203C102.854 16.0496 103.413 16.515 103.413 17.4147V18.1593L100.962 18.4385C98.8211 18.6867 96.6805 19.7104 96.6805 21.8201V22.7818C96.6805 24.4261 97.9214 25.9772 100.186 25.9772H101.21C102.172 25.9772 103.195 25.5429 104.064 24.7983L104.405 25.8221H106.608V17.1665C106.639 15.0879 105.119 13.1955 102.482 13.1955ZM103.444 22.4095C102.947 22.8749 102.172 23.1231 101.427 23.1231H100.838C100.372 23.1231 99.938 22.8438 99.938 22.3164V21.9442C99.938 21.3547 100.651 20.9204 101.458 20.8273L103.444 20.5481V22.4095ZM92.213 13.1955H91.3444C90.1655 13.1955 89.0486 13.6608 88.1489 14.4674C87.6215 13.6918 86.7528 13.1955 85.605 13.1955H84.7673C83.6194 13.1955 82.5646 13.6608 81.6339 14.4054L81.2927 13.3195H79.09V25.8221H82.2854V16.7632C82.7198 16.3289 83.3092 16.0496 83.9297 16.0496H84.395C85.1086 16.0496 85.667 16.4529 85.667 17.3837V25.8221H88.8935V16.7322C89.2968 16.3289 89.9173 16.0496 90.5378 16.0496H91.0031C91.6856 16.0496 92.2751 16.4529 92.2751 17.3837V25.8221H95.5016V16.8873C95.5326 14.9328 94.3847 13.1955 92.213 13.1955Z" fill="#53565A"/>
<path d="M60.7859 36.2459V37.0215C60.7859 37.673 61.2203 37.9833 61.7477 37.9833H62.2751C62.8025 37.9833 63.2368 37.7041 63.2368 37.0836V37.0215H65.5015V37.4559C65.5015 38.7589 64.4467 39.9688 62.5543 39.9688H61.5925C59.638 39.9688 58.5212 38.7279 58.5212 37.3628V33.6089C58.5212 32.2439 59.638 31.0029 61.5925 31.0029H62.5543C64.4157 31.0029 65.5015 32.2439 65.5015 33.6089V36.2459H60.7859ZM60.7859 34.5396H63.2368V33.9812C63.2368 33.3607 62.8025 33.0195 62.2751 33.0195H61.7477C61.2203 33.0195 60.7859 33.3297 60.7859 33.9812V34.5396Z" fill="#53565A"/>
<path d="M69.3485 31.0961V28.7383H67.7973L67.1148 31.0961H66.122V33.1126H67.0837V39.9068H69.3485V33.1126H70.5584V31.0961H69.3485Z" fill="#53565A"/>
<path d="M113.557 31.0961V28.7383H112.006L111.324 31.0961H110.331V33.1126H111.293V39.9068H113.557V33.1126H114.767V31.0961H113.557Z" fill="#53565A"/>
<path d="M74.0952 39.9998C72.1407 39.9998 71.0238 38.7589 71.0238 37.3938V33.6089C71.0238 32.2439 72.1407 31.0029 74.0952 31.0029H75.0569C76.9184 31.0029 78.0042 32.2439 78.0042 33.6089V37.3938C78.0042 38.7589 76.9494 39.9998 75.0569 39.9998H74.0952ZM74.7777 37.9833C75.3051 37.9833 75.7394 37.673 75.7394 37.0215V33.9812C75.7394 33.3607 75.3051 33.0195 74.7777 33.0195H74.2503C73.7229 33.0195 73.2886 33.3297 73.2886 33.9812V37.0215C73.2886 37.673 73.7229 37.9833 74.2503 37.9833H74.7777Z" fill="#53565A"/>
<path d="M83.7125 39.9068V33.9502C83.7125 33.2987 83.3092 33.0195 82.8128 33.0195H82.4715C82.0372 33.0195 81.6028 33.2056 81.3236 33.5159V39.9068H79.0589V31.096H80.6101L80.8583 31.8716C81.5098 31.3442 82.2543 31.0029 83.061 31.0029H83.6504C85.1706 31.0029 85.9772 32.2129 85.9772 33.6089V39.9068H83.7125Z" fill="#53565A"/>
<path d="M55.0775 31.003H54.3019C53.7435 31.003 53.2161 31.1892 52.7197 31.4684V28.7383H50.455V39.8758H52.0062L52.2233 39.1623C52.7818 39.6587 53.4333 39.9689 54.1468 39.9689H55.0465C56.5977 39.9689 57.4353 38.6659 57.4353 37.3008V33.6711C57.4664 32.275 56.5977 31.003 55.0775 31.003ZM55.1706 37.0216C55.1706 37.6731 54.7673 37.9834 54.3019 37.9834H53.8366C53.4333 37.9834 52.9989 37.7972 52.7197 37.518V33.4849C52.9989 33.2057 53.3712 33.0196 53.7745 33.0196H54.2709C54.7363 33.0196 55.1706 33.3298 55.1706 33.9813V37.0216Z" fill="#53565A"/>
<path d="M91.7788 31.003H91.0032C90.4447 31.003 89.9173 31.1892 89.421 31.4684V28.7383H87.1562V39.8758H88.7074L88.9246 39.1623C89.483 39.6587 90.1345 39.9689 90.8481 39.9689H91.7477C93.2989 39.9689 94.1366 38.6659 94.1366 37.3008V33.6711C94.1366 32.275 93.2989 31.003 91.7788 31.003ZM91.8718 37.0216C91.8718 37.6731 91.4685 37.9834 91.0032 37.9834H90.5378C90.1345 37.9834 89.7002 37.7972 89.421 37.518V33.4849C89.7002 33.2057 90.0725 33.0196 90.4758 33.0196H90.9721C91.4375 33.0196 91.8718 33.3298 91.8718 33.9813V37.0216Z" fill="#53565A"/>
<path d="M101.83 33.7951V39.8757H100.279L100.031 39.1312C99.4415 39.6586 98.697 39.9688 98.0145 39.9688H97.2699C95.6877 39.9688 94.819 38.883 94.819 37.7351V37.0526C94.819 35.5634 96.3081 34.8499 97.8283 34.6637L99.5346 34.4776V33.9502C99.5346 33.3297 99.1313 32.9885 98.6659 32.9885H98.2316C97.7973 32.9885 97.425 33.2677 97.425 33.8571V33.9812H95.1603V33.764C95.1603 32.3059 96.2461 31.0029 98.1075 31.0029H98.8831C100.776 31.0029 101.83 32.337 101.83 33.7951ZM99.5656 37.4869V36.1529L98.1696 36.339C97.6111 36.4321 97.1148 36.7113 97.1148 37.1456V37.4249C97.1148 37.7971 97.425 37.9833 97.7352 37.9833H98.1385C98.666 37.9833 99.2244 37.7971 99.5656 37.4869Z" fill="#53565A"/>
<path d="M105.026 31.0962V37.0528C105.026 37.7043 105.429 37.9835 105.926 37.9835H106.267C106.701 37.9835 107.136 37.7973 107.415 37.5181V31.0962H109.679V39.8759H108.128L107.88 39.1314C107.229 39.6588 106.484 39.969 105.708 39.969H105.088C103.568 39.969 102.792 38.7591 102.792 37.363V31.0962H105.026Z" fill="#53565A"/>
<path d="M74.0952 39.9998C72.1407 39.9998 71.0238 38.7589 71.0238 37.3938V33.6089C71.0238 32.2439 72.1407 31.0029 74.0952 31.0029H75.0569C76.9184 31.0029 78.0042 32.2439 78.0042 33.6089V37.3938C78.0042 38.7589 76.9494 39.9998 75.0569 39.9998H74.0952ZM74.7777 37.9833C75.3051 37.9833 75.7394 37.673 75.7394 37.0215V33.9812C75.7394 33.3607 75.3051 33.0195 74.7777 33.0195H74.2503C73.7229 33.0195 73.2886 33.3297 73.2886 33.9812V37.0215C73.2886 37.673 73.7229 37.9833 74.2503 37.9833H74.7777Z" fill="#53565A"/>
<path d="M83.7125 39.9068V33.9502C83.7125 33.2987 83.3092 33.0195 82.8128 33.0195H82.4715C82.0372 33.0195 81.6028 33.2056 81.3236 33.5159V39.9068H79.0589V31.096H80.6101L80.8583 31.8716C81.5098 31.3442 82.2543 31.0029 83.061 31.0029H83.6504C85.1706 31.0029 85.9772 32.2129 85.9772 33.6089V39.9068H83.7125Z" fill="#53565A"/>
<path d="M117.28 36.2459V37.0215C117.28 37.673 117.715 37.9833 118.242 37.9833H118.769C119.297 37.9833 119.731 37.7041 119.731 37.0836V37.0215H121.996V37.4559C121.996 38.7589 120.941 39.9688 119.049 39.9688H118.087C116.132 39.9688 115.016 38.7279 115.016 37.3628V33.6089C115.016 32.2439 116.132 31.0029 118.087 31.0029H119.049C120.91 31.0029 121.996 32.2439 121.996 33.6089V36.2459H117.28ZM117.28 34.5396H119.731V33.9812C119.731 33.3607 119.297 33.0195 118.769 33.0195H118.242C117.715 33.0195 117.28 33.3297 117.28 33.9812V34.5396Z" fill="#53565A"/>
<path d="M131.768 36.2459V37.0215C131.768 37.673 132.203 37.9833 132.73 37.9833H133.258C133.785 37.9833 134.219 37.7041 134.219 37.0836V37.0215H136.484V37.4559C136.484 38.7589 135.429 39.9688 133.537 39.9688H132.575C130.621 39.9688 129.504 38.7279 129.504 37.3628V33.6089C129.504 32.2439 130.621 31.0029 132.575 31.0029H133.537C135.398 31.0029 136.484 32.2439 136.484 33.6089V36.2459H131.768ZM131.768 34.5396H134.219V33.9812C134.219 33.3607 133.785 33.0195 133.258 33.0195H132.73C132.203 33.0195 131.768 33.3297 131.768 33.9812V34.5396Z" fill="#53565A"/>
<path d="M128.542 28.7383H126.277V39.8758H128.542V28.7383Z" fill="#53565A"/>
<path d="M122.989 39.9068H125.253V31.0961H122.989V39.9068ZM122.989 28.7383V30.2584H125.253V28.7383H122.989Z" fill="#53565A"/>
</svg>
